<svg width="36" height="34" viewBox="0 0 36 34" fill="none" xmlns="http://www.w3.org/2000/svg">
<path d="M34.5 16.9962C34.5 25.4746 27.195 32.4924 18 32.4924C8.80505 32.4924 1.5 25.4746 1.5 16.9962C1.5 8.51782 8.80505 1.5 18 1.5C27.195 1.5 34.5 8.51782 34.5 16.9962Z" fill="#D9D9D9" stroke="black" stroke-width="3"/>
<path d="M31.3339 16.5428C31.7245 16.9333 31.7245 17.5665 31.3339 17.957L24.97 24.321C24.5795 24.7115 23.9463 24.7115 23.5558 24.321C23.1652 23.9304 23.1652 23.2973 23.5558 22.9067L29.2126 17.2499L23.5558 11.593C23.1652 11.2025 23.1652 10.5693 23.5558 10.1788C23.9463 9.7883 24.5795 9.7883 24.97 10.1788L31.3339 16.5428ZM5.37311 16.2499L30.6268 16.2499V18.2499L5.37311 18.2499V16.2499Z" fill="black"/>
</svg>
