<svg width="36" height="34" viewBox="0 0 36 34" fill="none" xmlns="http://www.w3.org/2000/svg">
<path d="M1.5 16.9962C1.5 25.4746 8.80505 32.4924 18 32.4924C27.195 32.4924 34.5 25.4746 34.5 16.9962C34.5 8.51782 27.195 1.5 18 1.5C8.80505 1.5 1.5 8.51782 1.5 16.9962Z" fill="#D9D9D9" stroke="black" stroke-width="3"/>
<path d="M4.66605 16.5428C4.27553 16.9333 4.27553 17.5665 4.66605 17.957L11.03 24.321C11.4205 24.7115 12.0537 24.7115 12.4442 24.321C12.8348 23.9304 12.8348 23.2973 12.4442 22.9067L6.78737 17.2499L12.4442 11.593C12.8348 11.2025 12.8348 10.5693 12.4442 10.1788C12.0537 9.7883 11.4205 9.7883 11.03 10.1788L4.66605 16.5428ZM30.6269 16.2499L5.37316 16.2499V18.2499L30.6269 18.2499V16.2499Z" fill="black"/>
</svg>
